<?xml version="1.0" encoding="UTF-8"?>
<svg width="40px" height="40px" viewBox="0 0 40 40" version="1.1" xmlns="http://www.w3.org/2000/svg" xmlns:xlink="http://www.w3.org/1999/xlink">
    <title>instagram</title>
    <g id="Page-1" stroke="none" stroke-width="1" fill="none" fill-rule="evenodd">
        <g id="Desktop-HD" transform="translate(-250.000000, -2732.000000)" fill-rule="nonzero">
            <g id="Group-7" transform="translate(250.000000, 2665.000000)">
                <g id="instagram" transform="translate(0.000000, 67.000000)">
                    <path d="M19.7226097,3.67521966 C10.84801,3.67521966 3.62160744,10.897612 3.62160744,19.7722117 C3.62160744,28.6508217 10.84801,35.8752191 19.7226097,35.8752191 C28.6012197,35.8752191 35.8216069,28.6508217 35.8216069,19.7722117 C35.8216069,10.8996171 28.5992146,3.67521966 19.7226097,3.67521966 Z" id="Path" fill="#FFFFFF"></path>
                    <path d="M25.5998357,10.4939332 L13.8438181,10.4939332 C11.9673904,10.4939332 10.4407604,12.0205631 10.4407604,13.8969909 L10.4407604,25.6530085 C10.4407604,27.5294362 11.9673904,29.0565056 13.8438181,29.0565056 L25.5998357,29.0565056 C27.4762634,29.0565056 29.0033328,27.5298756 29.0033328,25.6530085 L29.0033328,13.8969909 C29.0033328,12.0205631 27.4767029,10.4939332 25.5998357,10.4939332 Z M19.7218269,25.885914 C16.3526064,25.885914 13.611352,23.1446596 13.611352,19.7749997 C13.611352,16.4057792 16.3526064,13.6645248 19.7218269,13.6645248 C23.0914868,13.6645248 25.8327412,16.4057792 25.8327412,19.7749997 C25.8327412,23.1442202 23.0910474,25.885914 19.7218269,25.885914 Z M26.0291729,14.9279275 C25.2315812,14.9279275 24.5829612,14.2793075 24.5829612,13.4821553 C24.5829612,12.6850031 25.2315812,12.0363831 26.0291729,12.0363831 C26.8263251,12.0363831 27.4749451,12.6850031 27.4749451,13.4821553 C27.4749451,14.2793075 26.8263251,14.9279275 26.0291729,14.9279275 Z" id="Shape" fill="#324521"></path>
                    <path d="M19.7218269,16.2467003 C17.7768458,16.2467003 16.1930881,17.8295791 16.1930881,19.7745602 C16.1930881,21.7204202 17.7768458,23.3037385 19.7218269,23.3037385 C21.6676869,23.3037385 23.2501263,21.7204202 23.2501263,19.7745602 C23.2501263,17.8300186 21.6672474,16.2467003 19.7218269,16.2467003 Z" id="Path" fill="#324521"></path>
                    <path d="M19.7218269,0 C8.83019652,0 0,8.83019652 0,19.7218269 C0,30.6134573 8.83019652,39.4436538 19.7218269,39.4436538 C30.6134573,39.4436538 39.4436538,30.6134573 39.4436538,19.7218269 C39.4436538,8.83019652 30.6134573,0 19.7218269,0 Z M31.5850689,25.6530085 C31.5850689,28.9536756 28.9005028,31.6382417 25.5998357,31.6382417 L13.8438181,31.6382417 C10.5435904,31.6382417 7.85858487,28.9536756 7.85858487,25.6530085 L7.85858487,13.8969909 C7.85858487,10.5967632 10.5435904,7.91175764 13.8438181,7.91175764 L25.5998357,7.91175764 C28.9005028,7.91175764 31.5850689,10.5967632 31.5850689,13.8969909 L31.5850689,25.6530085 Z" id="Shape" fill="#324521"></path>
                </g>
            </g>
        </g>
    </g>
</svg>