<?xml version="1.0" encoding="UTF-8"?>
<svg width="41px" height="40px" viewBox="0 0 41 40" version="1.1" xmlns="http://www.w3.org/2000/svg" xmlns:xlink="http://www.w3.org/1999/xlink">
    <title>twitter</title>
    <g id="Page-1" stroke="none" stroke-width="1" fill="none" fill-rule="evenodd">
        <g id="Desktop-HD" transform="translate(-309.000000, -2732.000000)" fill-rule="nonzero">
            <g id="Group-7" transform="translate(250.000000, 2665.000000)">
                <g id="Group-6" transform="translate(0.000000, 67.000000)">
                    <g id="twitter" transform="translate(59.550000, 0.000000)">
                        <circle id="Oval" fill="#324521" cx="19.6346497" cy="19.6342997" r="19.6342997"></circle>
                        <path d="M31.6613495,14.1105998 C30.8199495,14.4836998 29.9148495,14.7360497 28.9656495,14.8487497 C29.9347995,14.2680998 30.6785495,13.3493498 31.0295995,12.2527998 C30.1227495,12.7907498 29.1178995,13.1809998 28.0493495,13.3913498 C27.1932495,12.4795998 25.9734996,11.9097998 24.6228496,11.9097998 C22.0314496,11.9097998 19.9296997,14.0115498 19.9296997,16.6029497 C19.9296997,16.9707997 19.9713497,17.3288497 20.0518497,17.6725497 C16.1514497,17.4768997 12.6930998,15.6085997 10.3781998,12.7683498 C9.97429983,13.4613498 9.74259983,14.2680998 9.74259983,15.1280497 C9.74259983,16.7558997 10.5717498,18.1929997 11.8303498,19.0343997 C11.0613998,19.0102497 10.3372498,18.7991997 9.70479983,18.4467497 C9.70444983,18.4666997 9.70444983,18.4866497 9.70444983,18.5062497 C9.70444983,20.7801996 11.3228498,22.6768496 13.4693998,23.1076996 C13.0759998,23.2154996 12.6605498,23.2725496 12.2331998,23.2725496 C11.9300998,23.2725496 11.6364498,23.2434996 11.3501498,23.1888996 C11.9472498,25.0529996 13.6800998,26.4099496 15.7342497,26.4480995 C14.1277498,27.7070495 12.1043998,28.4570995 9.90499983,28.4570995 C9.52699984,28.4570995 9.15249984,28.4350495 8.78604985,28.3912995 C10.8618998,29.7233995 13.3293998,30.5000495 15.9795997,30.5000495 C24.6119996,30.5000495 29.3327995,23.3488496 29.3327995,17.1464997 C29.3327995,16.9431497 29.3282495,16.7404997 29.3191495,16.5395997 C30.2368495,15.8780997 31.0323995,15.0517497 31.6613495,14.1105998 L31.6613495,14.1105998 Z" id="Path" fill="#F1F2F2"></path>
                    </g>
                </g>
            </g>
        </g>
    </g>
</svg>