<?xml version="1.0" standalone="no"?>
<!DOCTYPE svg PUBLIC "-//W3C//DTD SVG 20010904//EN"
 "http://www.w3.org/TR/2001/REC-SVG-20010904/DTD/svg10.dtd">
<svg version="1.0" xmlns="http://www.w3.org/2000/svg"
 width="269.000000pt" height="269.000000pt" viewBox="0 0 269.000000 269.000000"
 preserveAspectRatio="xMidYMid meet">
<metadata>
Created by potrace 1.14, written by Peter Selinger 2001-2017
</metadata>
<g transform="translate(0.000000,269.000000) scale(0.100000,-0.100000)"
fill="#000000" stroke="none">
<path d="M1238 2675 c-2 -1 -26 -5 -54 -9 -29 -3 -83 -13 -120 -21 -91 -21
-87 -19 -101 -28 -7 -5 -13 -6 -13 -3 0 9 -119 -38 -205 -82 -390 -196 -671
-593 -722 -1019 -9 -74 -9 -271 0 -343 9 -69 31 -167 56 -245 19 -62 24 -73
75 -177 150 -308 427 -555 749 -667 84 -29 100 -34 165 -46 15 -3 33 -8 40
-10 31 -11 156 -19 272 -18 373 4 734 175 990 469 77 87 178 258 220 369 13
33 26 69 31 80 7 17 25 91 45 185 26 120 23 367 -7 500 -6 25 -12 54 -15 64
-11 57 -62 188 -104 272 -159 311 -444 557 -770 663 -98 31 -118 36 -210 52
-51 9 -315 21 -322 14z"/>
</g>
</svg>
